<mxfile host="app.diagrams.net" modified="2021-03-11T19:18:06.105Z" agent="5.0 (Windows NT 10.0; Win64; x64) AppleWebKit/537.36 (KHTML, like Gecko) Chrome/88.0.4324.190 Safari/537.36" etag="6eCtcVaBDok56HB2im5s" version="14.2.7" type="github">
  <diagram id="2nMjCobPpMNUO2yCJS2c" name="第 1 页">
    <mxGraphModel dx="1422" dy="762" grid="1" gridSize="10" guides="1" tooltips="1" connect="1" arrows="1" fold="1" page="1" pageScale="1" pageWidth="827" pageHeight="1169" math="0" shadow="0">
      <root>
        <mxCell id="0" />
        <mxCell id="1" parent="0" />
        <mxCell id="3dRhZd6Rb1Qm-3JZGdvN-3" value="系统管理员" style="html=1;dashed=0;whitespace=wrap;strokeWidth=2;fontSize=15;" vertex="1" parent="1">
          <mxGeometry x="500" y="700" width="80" height="90" as="geometry" />
        </mxCell>
        <mxCell id="3dRhZd6Rb1Qm-3JZGdvN-6" value="1" style="swimlane;fontStyle=0;childLayout=stackLayout;horizontal=1;startSize=20;horizontalStack=0;resizeParent=1;resizeParentMax=0;resizeLast=0;collapsible=0;marginBottom=0;swimlaneFillColor=#ffffff;strokeWidth=2;rounded=1;fontSize=15;" vertex="1" parent="1">
          <mxGeometry x="680" y="690" width="100" height="40" as="geometry" />
        </mxCell>
        <mxCell id="3dRhZd6Rb1Qm-3JZGdvN-9" value="用户删除" style="text;html=1;align=center;verticalAlign=middle;resizable=0;points=[];autosize=1;fontSize=15;" vertex="1" parent="3dRhZd6Rb1Qm-3JZGdvN-6">
          <mxGeometry y="20" width="100" height="20" as="geometry" />
        </mxCell>
        <mxCell id="3dRhZd6Rb1Qm-3JZGdvN-7" value="商店老板" style="html=1;dashed=0;whitespace=wrap;strokeWidth=2;fontSize=15;" vertex="1" parent="1">
          <mxGeometry x="144" y="780" width="76" height="90" as="geometry" />
        </mxCell>
        <mxCell id="3dRhZd6Rb1Qm-3JZGdvN-8" value="业务员" style="html=1;dashed=0;whitespace=wrap;strokeWidth=2;fontSize=15;" vertex="1" parent="1">
          <mxGeometry x="440" y="450" width="70" height="80" as="geometry" />
        </mxCell>
        <mxCell id="3dRhZd6Rb1Qm-3JZGdvN-11" value="2" style="swimlane;fontStyle=0;childLayout=stackLayout;horizontal=1;startSize=20;fillColor=#ffffff;horizontalStack=0;resizeParent=1;resizeParentMax=0;resizeLast=0;collapsible=0;marginBottom=0;swimlaneFillColor=#ffffff;rounded=1;strokeWidth=2;fontSize=15;" vertex="1" parent="1">
          <mxGeometry x="470" y="580" width="100" height="40" as="geometry" />
        </mxCell>
        <mxCell id="3dRhZd6Rb1Qm-3JZGdvN-12" value="用户修改" style="text;html=1;align=center;verticalAlign=middle;resizable=0;points=[];autosize=1;fontSize=15;" vertex="1" parent="3dRhZd6Rb1Qm-3JZGdvN-11">
          <mxGeometry y="20" width="100" height="20" as="geometry" />
        </mxCell>
        <mxCell id="3dRhZd6Rb1Qm-3JZGdvN-17" value="3" style="swimlane;fontStyle=0;childLayout=stackLayout;horizontal=1;startSize=20;fillColor=#ffffff;horizontalStack=0;resizeParent=1;resizeParentMax=0;resizeLast=0;collapsible=0;marginBottom=0;swimlaneFillColor=#ffffff;rounded=1;strokeWidth=2;fontSize=15;" vertex="1" parent="1">
          <mxGeometry x="350" y="690" width="100" height="40" as="geometry" />
        </mxCell>
        <mxCell id="3dRhZd6Rb1Qm-3JZGdvN-13" value="身份验证" style="text;html=1;align=center;verticalAlign=middle;resizable=0;points=[];autosize=1;fontSize=15;" vertex="1" parent="3dRhZd6Rb1Qm-3JZGdvN-17">
          <mxGeometry y="20" width="100" height="20" as="geometry" />
        </mxCell>
        <mxCell id="3dRhZd6Rb1Qm-3JZGdvN-18" value="5" style="swimlane;fontStyle=0;childLayout=stackLayout;horizontal=1;startSize=20;fillColor=#ffffff;horizontalStack=0;resizeParent=1;resizeParentMax=0;resizeLast=0;collapsible=0;marginBottom=0;swimlaneFillColor=#ffffff;rounded=1;strokeWidth=2;fontSize=15;" vertex="1" parent="1">
          <mxGeometry x="359" y="860" width="100" height="40" as="geometry" />
        </mxCell>
        <mxCell id="3dRhZd6Rb1Qm-3JZGdvN-16" value="角色查询" style="text;html=1;align=center;verticalAlign=middle;resizable=0;points=[];autosize=1;fontSize=15;" vertex="1" parent="3dRhZd6Rb1Qm-3JZGdvN-18">
          <mxGeometry y="20" width="100" height="20" as="geometry" />
        </mxCell>
        <mxCell id="3dRhZd6Rb1Qm-3JZGdvN-19" value="4" style="swimlane;fontStyle=0;childLayout=stackLayout;horizontal=1;startSize=20;fillColor=#ffffff;horizontalStack=0;resizeParent=1;resizeParentMax=0;resizeLast=0;collapsible=0;marginBottom=0;swimlaneFillColor=#ffffff;rounded=1;strokeWidth=2;fontSize=15;" vertex="1" parent="1">
          <mxGeometry x="600" y="580" width="100" height="40" as="geometry" />
        </mxCell>
        <mxCell id="3dRhZd6Rb1Qm-3JZGdvN-14" value="用户添加" style="text;html=1;align=center;verticalAlign=middle;resizable=0;points=[];autosize=1;fontSize=15;" vertex="1" parent="3dRhZd6Rb1Qm-3JZGdvN-19">
          <mxGeometry y="20" width="100" height="20" as="geometry" />
        </mxCell>
        <mxCell id="3dRhZd6Rb1Qm-3JZGdvN-20" value="6" style="swimlane;fontStyle=0;childLayout=stackLayout;horizontal=1;startSize=20;fillColor=#ffffff;horizontalStack=0;resizeParent=1;resizeParentMax=0;resizeLast=0;collapsible=0;marginBottom=0;swimlaneFillColor=#ffffff;rounded=1;strokeWidth=2;fontSize=15;" vertex="1" parent="1">
          <mxGeometry x="652.5" y="780" width="105" height="40" as="geometry" />
        </mxCell>
        <mxCell id="3dRhZd6Rb1Qm-3JZGdvN-15" value="角色权限变更" style="text;html=1;align=center;verticalAlign=middle;resizable=0;points=[];autosize=1;fontSize=15;" vertex="1" parent="3dRhZd6Rb1Qm-3JZGdvN-20">
          <mxGeometry y="20" width="105" height="20" as="geometry" />
        </mxCell>
        <mxCell id="3dRhZd6Rb1Qm-3JZGdvN-21" value="7" style="swimlane;fontStyle=0;childLayout=stackLayout;horizontal=1;startSize=20;fillColor=#ffffff;horizontalStack=0;resizeParent=1;resizeParentMax=0;resizeLast=0;collapsible=0;marginBottom=0;swimlaneFillColor=#ffffff;rounded=1;strokeWidth=2;fontSize=15;" vertex="1" parent="1">
          <mxGeometry x="278" y="440" width="100" height="40" as="geometry" />
        </mxCell>
        <mxCell id="3dRhZd6Rb1Qm-3JZGdvN-23" value="订单查询" style="text;html=1;align=center;verticalAlign=middle;resizable=0;points=[];autosize=1;fontSize=15;" vertex="1" parent="3dRhZd6Rb1Qm-3JZGdvN-21">
          <mxGeometry y="20" width="100" height="20" as="geometry" />
        </mxCell>
        <mxCell id="3dRhZd6Rb1Qm-3JZGdvN-22" value="8" style="swimlane;fontStyle=0;childLayout=stackLayout;horizontal=1;startSize=20;fillColor=#ffffff;horizontalStack=0;resizeParent=1;resizeParentMax=0;resizeLast=0;collapsible=0;marginBottom=0;swimlaneFillColor=#ffffff;rounded=1;strokeWidth=2;fontSize=15;" vertex="1" parent="1">
          <mxGeometry x="130" y="935" width="100" height="40" as="geometry" />
        </mxCell>
        <mxCell id="3dRhZd6Rb1Qm-3JZGdvN-24" value="商品增加" style="text;html=1;align=center;verticalAlign=middle;resizable=0;points=[];autosize=1;fontSize=15;" vertex="1" parent="3dRhZd6Rb1Qm-3JZGdvN-22">
          <mxGeometry y="20" width="100" height="20" as="geometry" />
        </mxCell>
        <mxCell id="3dRhZd6Rb1Qm-3JZGdvN-25" value="9" style="swimlane;fontStyle=0;childLayout=stackLayout;horizontal=1;startSize=20;fillColor=#ffffff;horizontalStack=0;resizeParent=1;resizeParentMax=0;resizeLast=0;collapsible=0;marginBottom=0;swimlaneFillColor=#ffffff;rounded=1;strokeWidth=2;fontSize=15;" vertex="1" parent="1">
          <mxGeometry x="540" y="920" width="100" height="40" as="geometry" />
        </mxCell>
        <mxCell id="3dRhZd6Rb1Qm-3JZGdvN-31" value="商品查询" style="text;html=1;align=center;verticalAlign=middle;resizable=0;points=[];autosize=1;fontSize=15;" vertex="1" parent="3dRhZd6Rb1Qm-3JZGdvN-25">
          <mxGeometry y="20" width="100" height="20" as="geometry" />
        </mxCell>
        <mxCell id="3dRhZd6Rb1Qm-3JZGdvN-32" value="用户表" style="html=1;dashed=0;whitespace=wrap;rounded=0;strokeWidth=2;fillColor=#ffffff;gradientColor=none;fontSize=15;" vertex="1" parent="1">
          <mxGeometry x="620" y="420" width="90" height="40" as="geometry" />
        </mxCell>
        <mxCell id="3dRhZd6Rb1Qm-3JZGdvN-34" value="订单表" style="html=1;dashed=0;whitespace=wrap;rounded=0;strokeWidth=2;fillColor=#ffffff;gradientColor=none;fontSize=15;" vertex="1" parent="1">
          <mxGeometry x="120" y="440" width="90" height="40" as="geometry" />
        </mxCell>
        <mxCell id="3dRhZd6Rb1Qm-3JZGdvN-35" value="角色表" style="html=1;dashed=0;whitespace=wrap;rounded=0;strokeWidth=2;fillColor=#ffffff;gradientColor=none;fontSize=15;" vertex="1" parent="1">
          <mxGeometry x="299" y="765" width="90" height="40" as="geometry" />
        </mxCell>
        <mxCell id="3dRhZd6Rb1Qm-3JZGdvN-36" value="菜单表" style="html=1;dashed=0;whitespace=wrap;rounded=0;strokeWidth=2;fillColor=#ffffff;gradientColor=none;fontSize=15;" vertex="1" parent="1">
          <mxGeometry x="660" y="900" width="90" height="40" as="geometry" />
        </mxCell>
        <mxCell id="3dRhZd6Rb1Qm-3JZGdvN-37" value="" style="endArrow=classic;html=1;fontSize=15;strokeWidth=2;entryX=0.51;entryY=1.05;entryDx=0;entryDy=0;entryPerimeter=0;exitX=0.75;exitY=0;exitDx=0;exitDy=0;" edge="1" parent="1" source="3dRhZd6Rb1Qm-3JZGdvN-3" target="3dRhZd6Rb1Qm-3JZGdvN-14">
          <mxGeometry width="50" height="50" relative="1" as="geometry">
            <mxPoint x="580" y="680" as="sourcePoint" />
            <mxPoint x="600" y="570" as="targetPoint" />
          </mxGeometry>
        </mxCell>
        <mxCell id="3dRhZd6Rb1Qm-3JZGdvN-38" value="" style="endArrow=classic;html=1;strokeWidth=2;fontSize=15;exitX=0.5;exitY=0;exitDx=0;exitDy=0;entryX=0.5;entryY=1;entryDx=0;entryDy=0;" edge="1" parent="1" source="3dRhZd6Rb1Qm-3JZGdvN-19" target="3dRhZd6Rb1Qm-3JZGdvN-32">
          <mxGeometry width="50" height="50" relative="1" as="geometry">
            <mxPoint x="660" y="540" as="sourcePoint" />
            <mxPoint x="710" y="490" as="targetPoint" />
          </mxGeometry>
        </mxCell>
        <mxCell id="3dRhZd6Rb1Qm-3JZGdvN-41" value="" style="endArrow=classic;html=1;strokeWidth=2;fontSize=15;exitX=0.25;exitY=0;exitDx=0;exitDy=0;entryX=0.75;entryY=1.05;entryDx=0;entryDy=0;entryPerimeter=0;" edge="1" parent="1" source="3dRhZd6Rb1Qm-3JZGdvN-3" target="3dRhZd6Rb1Qm-3JZGdvN-12">
          <mxGeometry width="50" height="50" relative="1" as="geometry">
            <mxPoint x="420" y="650" as="sourcePoint" />
            <mxPoint x="380" y="640" as="targetPoint" />
          </mxGeometry>
        </mxCell>
        <mxCell id="3dRhZd6Rb1Qm-3JZGdvN-42" value="" style="endArrow=classic;html=1;strokeWidth=2;fontSize=15;exitX=0.5;exitY=0;exitDx=0;exitDy=0;entryX=0;entryY=0.5;entryDx=0;entryDy=0;" edge="1" parent="1" source="3dRhZd6Rb1Qm-3JZGdvN-11" target="3dRhZd6Rb1Qm-3JZGdvN-32">
          <mxGeometry width="50" height="50" relative="1" as="geometry">
            <mxPoint x="400" y="500" as="sourcePoint" />
            <mxPoint x="450" y="450" as="targetPoint" />
          </mxGeometry>
        </mxCell>
        <mxCell id="3dRhZd6Rb1Qm-3JZGdvN-45" value="" style="endArrow=classic;html=1;strokeWidth=2;fontSize=15;entryX=0.25;entryY=1;entryDx=0;entryDy=0;exitX=0.75;exitY=0;exitDx=0;exitDy=0;" edge="1" parent="1" source="3dRhZd6Rb1Qm-3JZGdvN-18" target="3dRhZd6Rb1Qm-3JZGdvN-3">
          <mxGeometry width="50" height="50" relative="1" as="geometry">
            <mxPoint x="400" y="800" as="sourcePoint" />
            <mxPoint x="450" y="750" as="targetPoint" />
          </mxGeometry>
        </mxCell>
        <mxCell id="3dRhZd6Rb1Qm-3JZGdvN-46" value="" style="endArrow=classic;html=1;strokeWidth=2;fontSize=15;entryX=0.25;entryY=0;entryDx=0;entryDy=0;exitX=0.5;exitY=1;exitDx=0;exitDy=0;" edge="1" parent="1" source="3dRhZd6Rb1Qm-3JZGdvN-35" target="3dRhZd6Rb1Qm-3JZGdvN-18">
          <mxGeometry width="50" height="50" relative="1" as="geometry">
            <mxPoint x="220" y="780" as="sourcePoint" />
            <mxPoint x="300" y="760" as="targetPoint" />
          </mxGeometry>
        </mxCell>
        <mxCell id="3dRhZd6Rb1Qm-3JZGdvN-50" value="" style="endArrow=classic;html=1;strokeWidth=2;fontSize=15;exitX=1;exitY=0.75;exitDx=0;exitDy=0;entryX=0;entryY=0.25;entryDx=0;entryDy=0;" edge="1" parent="1" source="3dRhZd6Rb1Qm-3JZGdvN-3" target="3dRhZd6Rb1Qm-3JZGdvN-20">
          <mxGeometry width="50" height="50" relative="1" as="geometry">
            <mxPoint x="650" y="680" as="sourcePoint" />
            <mxPoint x="700" y="630" as="targetPoint" />
          </mxGeometry>
        </mxCell>
        <mxCell id="3dRhZd6Rb1Qm-3JZGdvN-51" value="" style="endArrow=classic;html=1;strokeWidth=2;fontSize=15;exitX=0.524;exitY=0.95;exitDx=0;exitDy=0;entryX=0.5;entryY=0;entryDx=0;entryDy=0;exitPerimeter=0;" edge="1" parent="1" source="3dRhZd6Rb1Qm-3JZGdvN-15" target="3dRhZd6Rb1Qm-3JZGdvN-36">
          <mxGeometry width="50" height="50" relative="1" as="geometry">
            <mxPoint x="710" y="980" as="sourcePoint" />
            <mxPoint x="760" y="930" as="targetPoint" />
          </mxGeometry>
        </mxCell>
        <mxCell id="3dRhZd6Rb1Qm-3JZGdvN-54" value="用户表" style="html=1;dashed=0;whitespace=wrap;rounded=0;strokeWidth=2;fillColor=#ffffff;gradientColor=none;fontSize=15;" vertex="1" parent="1">
          <mxGeometry x="310" y="540" width="90" height="40" as="geometry" />
        </mxCell>
        <mxCell id="3dRhZd6Rb1Qm-3JZGdvN-55" value="" style="endArrow=classic;html=1;strokeWidth=2;fontSize=15;exitX=-0.012;exitY=0.622;exitDx=0;exitDy=0;exitPerimeter=0;entryX=1;entryY=0.75;entryDx=0;entryDy=0;" edge="1" parent="1" source="3dRhZd6Rb1Qm-3JZGdvN-3" target="3dRhZd6Rb1Qm-3JZGdvN-17">
          <mxGeometry width="50" height="50" relative="1" as="geometry">
            <mxPoint x="300" y="670" as="sourcePoint" />
            <mxPoint x="350" y="620" as="targetPoint" />
          </mxGeometry>
        </mxCell>
        <mxCell id="3dRhZd6Rb1Qm-3JZGdvN-56" value="" style="endArrow=classic;html=1;strokeWidth=2;fontSize=15;exitX=0.5;exitY=1;exitDx=0;exitDy=0;entryX=0.25;entryY=0;entryDx=0;entryDy=0;" edge="1" parent="1" source="3dRhZd6Rb1Qm-3JZGdvN-54" target="3dRhZd6Rb1Qm-3JZGdvN-17">
          <mxGeometry width="50" height="50" relative="1" as="geometry">
            <mxPoint x="210" y="650" as="sourcePoint" />
            <mxPoint x="190" y="640" as="targetPoint" />
          </mxGeometry>
        </mxCell>
        <mxCell id="3dRhZd6Rb1Qm-3JZGdvN-66" value="" style="endArrow=classic;html=1;strokeWidth=2;fontSize=15;exitX=1;exitY=0.144;exitDx=0;exitDy=0;exitPerimeter=0;entryX=0;entryY=0.25;entryDx=0;entryDy=0;" edge="1" parent="1" source="3dRhZd6Rb1Qm-3JZGdvN-3" target="3dRhZd6Rb1Qm-3JZGdvN-6">
          <mxGeometry width="50" height="50" relative="1" as="geometry">
            <mxPoint x="600" y="580" as="sourcePoint" />
            <mxPoint x="650" y="530" as="targetPoint" />
          </mxGeometry>
        </mxCell>
        <mxCell id="3dRhZd6Rb1Qm-3JZGdvN-67" value="" style="endArrow=classic;html=1;strokeWidth=2;fontSize=15;exitX=0.5;exitY=0;exitDx=0;exitDy=0;entryX=0.75;entryY=1;entryDx=0;entryDy=0;" edge="1" parent="1" source="3dRhZd6Rb1Qm-3JZGdvN-6" target="3dRhZd6Rb1Qm-3JZGdvN-32">
          <mxGeometry width="50" height="50" relative="1" as="geometry">
            <mxPoint x="550" y="410" as="sourcePoint" />
            <mxPoint x="600" y="360" as="targetPoint" />
          </mxGeometry>
        </mxCell>
        <mxCell id="3dRhZd6Rb1Qm-3JZGdvN-69" value="10" style="swimlane;fontStyle=0;childLayout=stackLayout;horizontal=1;startSize=20;fillColor=#ffffff;horizontalStack=0;resizeParent=1;resizeParentMax=0;resizeLast=0;collapsible=0;marginBottom=0;swimlaneFillColor=#ffffff;rounded=1;strokeWidth=2;fontSize=15;" vertex="1" parent="1">
          <mxGeometry x="115" y="660" width="100" height="40" as="geometry" />
        </mxCell>
        <mxCell id="3dRhZd6Rb1Qm-3JZGdvN-70" value="商品删除" style="text;html=1;align=center;verticalAlign=middle;resizable=0;points=[];autosize=1;fontSize=15;" vertex="1" parent="3dRhZd6Rb1Qm-3JZGdvN-69">
          <mxGeometry y="20" width="100" height="20" as="geometry" />
        </mxCell>
        <mxCell id="3dRhZd6Rb1Qm-3JZGdvN-78" value="商品表" style="html=1;dashed=0;whitespace=wrap;rounded=0;strokeWidth=2;fillColor=#ffffff;gradientColor=none;fontSize=15;" vertex="1" parent="1">
          <mxGeometry x="369" y="932.5" width="90" height="45" as="geometry" />
        </mxCell>
        <mxCell id="3dRhZd6Rb1Qm-3JZGdvN-81" value="" style="endArrow=classic;html=1;strokeWidth=2;fontSize=15;entryX=0.5;entryY=1;entryDx=0;entryDy=0;exitX=0.5;exitY=0;exitDx=0;exitDy=0;" edge="1" parent="1" source="3dRhZd6Rb1Qm-3JZGdvN-25" target="3dRhZd6Rb1Qm-3JZGdvN-3">
          <mxGeometry width="50" height="50" relative="1" as="geometry">
            <mxPoint x="510" y="1010" as="sourcePoint" />
            <mxPoint x="560" y="960" as="targetPoint" />
          </mxGeometry>
        </mxCell>
        <mxCell id="3dRhZd6Rb1Qm-3JZGdvN-82" value="" style="endArrow=classic;html=1;strokeWidth=2;fontSize=15;exitX=1;exitY=0.5;exitDx=0;exitDy=0;entryX=-0.01;entryY=0.5;entryDx=0;entryDy=0;entryPerimeter=0;" edge="1" parent="1" source="3dRhZd6Rb1Qm-3JZGdvN-78" target="3dRhZd6Rb1Qm-3JZGdvN-31">
          <mxGeometry width="50" height="50" relative="1" as="geometry">
            <mxPoint x="510" y="980" as="sourcePoint" />
            <mxPoint x="560" y="930" as="targetPoint" />
          </mxGeometry>
        </mxCell>
        <mxCell id="3dRhZd6Rb1Qm-3JZGdvN-83" value="" style="endArrow=classic;html=1;strokeWidth=2;fontSize=15;exitX=0.5;exitY=0;exitDx=0;exitDy=0;" edge="1" parent="1" source="3dRhZd6Rb1Qm-3JZGdvN-7" target="3dRhZd6Rb1Qm-3JZGdvN-70">
          <mxGeometry width="50" height="50" relative="1" as="geometry">
            <mxPoint x="80" y="880" as="sourcePoint" />
            <mxPoint x="130" y="830" as="targetPoint" />
          </mxGeometry>
        </mxCell>
        <mxCell id="3dRhZd6Rb1Qm-3JZGdvN-84" value="" style="endArrow=classic;html=1;strokeWidth=2;fontSize=15;exitX=0.5;exitY=0;exitDx=0;exitDy=0;entryX=0.75;entryY=1;entryDx=0;entryDy=0;" edge="1" parent="1" source="3dRhZd6Rb1Qm-3JZGdvN-69" target="3dRhZd6Rb1Qm-3JZGdvN-85">
          <mxGeometry width="50" height="50" relative="1" as="geometry">
            <mxPoint x="300" y="950" as="sourcePoint" />
            <mxPoint x="350" y="900" as="targetPoint" />
          </mxGeometry>
        </mxCell>
        <mxCell id="3dRhZd6Rb1Qm-3JZGdvN-85" value="商品表" style="html=1;dashed=0;whitespace=wrap;rounded=0;strokeWidth=2;fillColor=#ffffff;gradientColor=none;fontSize=15;" vertex="1" parent="1">
          <mxGeometry x="120" y="530" width="90" height="40" as="geometry" />
        </mxCell>
        <mxCell id="3dRhZd6Rb1Qm-3JZGdvN-86" value="" style="endArrow=classic;html=1;strokeWidth=2;fontSize=15;exitX=0.5;exitY=1;exitDx=0;exitDy=0;entryX=0.5;entryY=0;entryDx=0;entryDy=0;" edge="1" parent="1" source="3dRhZd6Rb1Qm-3JZGdvN-7" target="3dRhZd6Rb1Qm-3JZGdvN-22">
          <mxGeometry width="50" height="50" relative="1" as="geometry">
            <mxPoint x="90" y="890" as="sourcePoint" />
            <mxPoint x="140" y="840" as="targetPoint" />
          </mxGeometry>
        </mxCell>
        <mxCell id="3dRhZd6Rb1Qm-3JZGdvN-87" value="" style="endArrow=classic;html=1;strokeWidth=2;fontSize=15;exitX=1;exitY=0.45;exitDx=0;exitDy=0;exitPerimeter=0;entryX=0;entryY=0.75;entryDx=0;entryDy=0;" edge="1" parent="1" source="3dRhZd6Rb1Qm-3JZGdvN-24" target="3dRhZd6Rb1Qm-3JZGdvN-78">
          <mxGeometry width="50" height="50" relative="1" as="geometry">
            <mxPoint x="350" y="1030" as="sourcePoint" />
            <mxPoint x="400" y="980" as="targetPoint" />
          </mxGeometry>
        </mxCell>
        <mxCell id="3dRhZd6Rb1Qm-3JZGdvN-88" value="" style="endArrow=classic;html=1;strokeWidth=2;fontSize=15;exitX=1;exitY=0.25;exitDx=0;exitDy=0;entryX=-0.01;entryY=0.5;entryDx=0;entryDy=0;entryPerimeter=0;" edge="1" parent="1" source="3dRhZd6Rb1Qm-3JZGdvN-7" target="3dRhZd6Rb1Qm-3JZGdvN-13">
          <mxGeometry width="50" height="50" relative="1" as="geometry">
            <mxPoint x="270" y="680" as="sourcePoint" />
            <mxPoint x="320" y="630" as="targetPoint" />
          </mxGeometry>
        </mxCell>
        <mxCell id="3dRhZd6Rb1Qm-3JZGdvN-89" value="" style="endArrow=classic;html=1;strokeWidth=2;fontSize=15;exitX=0.5;exitY=1;exitDx=0;exitDy=0;entryX=0.75;entryY=0;entryDx=0;entryDy=0;" edge="1" parent="1" source="3dRhZd6Rb1Qm-3JZGdvN-8" target="3dRhZd6Rb1Qm-3JZGdvN-17">
          <mxGeometry width="50" height="50" relative="1" as="geometry">
            <mxPoint x="370" y="600" as="sourcePoint" />
            <mxPoint x="420" y="550" as="targetPoint" />
          </mxGeometry>
        </mxCell>
        <mxCell id="3dRhZd6Rb1Qm-3JZGdvN-90" value="" style="endArrow=classic;html=1;strokeWidth=2;fontSize=15;exitX=1;exitY=0.25;exitDx=0;exitDy=0;entryX=0;entryY=0.25;entryDx=0;entryDy=0;" edge="1" parent="1" source="3dRhZd6Rb1Qm-3JZGdvN-21" target="3dRhZd6Rb1Qm-3JZGdvN-8">
          <mxGeometry width="50" height="50" relative="1" as="geometry">
            <mxPoint x="530" y="510" as="sourcePoint" />
            <mxPoint x="420" y="380" as="targetPoint" />
          </mxGeometry>
        </mxCell>
        <mxCell id="3dRhZd6Rb1Qm-3JZGdvN-91" value="" style="endArrow=classic;html=1;strokeWidth=2;fontSize=15;exitX=1;exitY=0.25;exitDx=0;exitDy=0;entryX=0;entryY=0.25;entryDx=0;entryDy=0;" edge="1" parent="1" source="3dRhZd6Rb1Qm-3JZGdvN-34" target="3dRhZd6Rb1Qm-3JZGdvN-21">
          <mxGeometry width="50" height="50" relative="1" as="geometry">
            <mxPoint x="560" y="480" as="sourcePoint" />
            <mxPoint x="278" y="370" as="targetPoint" />
          </mxGeometry>
        </mxCell>
        <mxCell id="3dRhZd6Rb1Qm-3JZGdvN-93" value="" style="endArrow=classic;html=1;strokeWidth=2;fontSize=15;exitX=0.5;exitY=0.95;exitDx=0;exitDy=0;exitPerimeter=0;entryX=0.75;entryY=0;entryDx=0;entryDy=0;" edge="1" parent="1" source="3dRhZd6Rb1Qm-3JZGdvN-23" target="3dRhZd6Rb1Qm-3JZGdvN-7">
          <mxGeometry width="50" height="50" relative="1" as="geometry">
            <mxPoint x="230" y="620" as="sourcePoint" />
            <mxPoint x="280" y="570" as="targetPoint" />
          </mxGeometry>
        </mxCell>
        <mxCell id="3dRhZd6Rb1Qm-3JZGdvN-94" value="新的权限" style="text;html=1;align=center;verticalAlign=middle;resizable=0;points=[];autosize=1;fontSize=15;" vertex="1" parent="1">
          <mxGeometry x="710" y="850" width="80" height="20" as="geometry" />
        </mxCell>
        <mxCell id="3dRhZd6Rb1Qm-3JZGdvN-95" value="商品信息" style="text;html=1;align=center;verticalAlign=middle;resizable=0;points=[];autosize=1;fontSize=15;" vertex="1" parent="1">
          <mxGeometry x="459" y="960" width="80" height="20" as="geometry" />
        </mxCell>
        <mxCell id="3dRhZd6Rb1Qm-3JZGdvN-96" value="商&lt;br&gt;品&lt;br&gt;信&lt;br&gt;息" style="text;html=1;align=center;verticalAlign=middle;resizable=0;points=[];autosize=1;fontSize=15;" vertex="1" parent="1">
          <mxGeometry x="575" y="820" width="30" height="80" as="geometry" />
        </mxCell>
        <mxCell id="3dRhZd6Rb1Qm-3JZGdvN-97" value="登&lt;br&gt;录&lt;br&gt;认&lt;br&gt;证" style="text;html=1;align=center;verticalAlign=middle;resizable=0;points=[];autosize=1;fontSize=15;" vertex="1" parent="1">
          <mxGeometry x="414" y="550" width="30" height="80" as="geometry" />
        </mxCell>
        <mxCell id="3dRhZd6Rb1Qm-3JZGdvN-98" value="&lt;br&gt;账&lt;br&gt;号&lt;br&gt;密&lt;br&gt;码" style="text;html=1;align=center;verticalAlign=middle;resizable=0;points=[];autosize=1;fontSize=15;" vertex="1" parent="1">
          <mxGeometry x="329" y="585" width="30" height="100" as="geometry" />
        </mxCell>
        <mxCell id="3dRhZd6Rb1Qm-3JZGdvN-99" value="新的商品" style="text;html=1;align=center;verticalAlign=middle;resizable=0;points=[];autosize=1;fontSize=15;" vertex="1" parent="1">
          <mxGeometry x="249" y="935" width="80" height="20" as="geometry" />
        </mxCell>
        <mxCell id="3dRhZd6Rb1Qm-3JZGdvN-100" value="商品&lt;br&gt;信息" style="text;html=1;align=center;verticalAlign=middle;resizable=0;points=[];autosize=1;fontSize=15;" vertex="1" parent="1">
          <mxGeometry x="180" y="880" width="50" height="40" as="geometry" />
        </mxCell>
        <mxCell id="3dRhZd6Rb1Qm-3JZGdvN-101" value="商品&lt;br&gt;信息" style="text;html=1;align=center;verticalAlign=middle;resizable=0;points=[];autosize=1;fontSize=15;" vertex="1" parent="1">
          <mxGeometry x="120" y="725" width="50" height="40" as="geometry" />
        </mxCell>
        <mxCell id="3dRhZd6Rb1Qm-3JZGdvN-102" value="删&lt;br&gt;除&lt;br&gt;商&lt;br&gt;品" style="text;html=1;align=center;verticalAlign=middle;resizable=0;points=[];autosize=1;fontSize=15;" vertex="1" parent="1">
          <mxGeometry x="140" y="580" width="30" height="80" as="geometry" />
        </mxCell>
        <mxCell id="3dRhZd6Rb1Qm-3JZGdvN-103" value="用&lt;br&gt;户&lt;br&gt;信&lt;br&gt;息" style="text;html=1;align=center;verticalAlign=middle;resizable=0;points=[];autosize=1;fontSize=15;" vertex="1" parent="1">
          <mxGeometry x="500" y="620" width="30" height="80" as="geometry" />
        </mxCell>
        <mxCell id="3dRhZd6Rb1Qm-3JZGdvN-104" value="更新&lt;br&gt;信息" style="text;html=1;align=center;verticalAlign=middle;resizable=0;points=[];autosize=1;fontSize=15;" vertex="1" parent="1">
          <mxGeometry x="520" y="470" width="50" height="40" as="geometry" />
        </mxCell>
        <mxCell id="3dRhZd6Rb1Qm-3JZGdvN-105" value="新&lt;br&gt;增&lt;br&gt;用&lt;br&gt;户" style="text;html=1;align=center;verticalAlign=middle;resizable=0;points=[];autosize=1;fontSize=15;" vertex="1" parent="1">
          <mxGeometry x="622.5" y="490" width="30" height="80" as="geometry" />
        </mxCell>
        <mxCell id="3dRhZd6Rb1Qm-3JZGdvN-106" value="删&lt;br&gt;除&lt;br&gt;用&lt;br&gt;户" style="text;html=1;align=center;verticalAlign=middle;resizable=0;points=[];autosize=1;fontSize=15;" vertex="1" parent="1">
          <mxGeometry x="715" y="560" width="30" height="80" as="geometry" />
        </mxCell>
        <mxCell id="3dRhZd6Rb1Qm-3JZGdvN-107" value="角色信息" style="text;html=1;align=center;verticalAlign=middle;resizable=0;points=[];autosize=1;fontSize=15;" vertex="1" parent="1">
          <mxGeometry x="278" y="830" width="80" height="20" as="geometry" />
        </mxCell>
        <mxCell id="3dRhZd6Rb1Qm-3JZGdvN-108" value="角色信息" style="text;html=1;align=center;verticalAlign=middle;resizable=0;points=[];autosize=1;fontSize=15;" vertex="1" parent="1">
          <mxGeometry x="414" y="800" width="80" height="20" as="geometry" />
        </mxCell>
        <mxCell id="3dRhZd6Rb1Qm-3JZGdvN-109" value="订&lt;br&gt;单&lt;br&gt;信&lt;br&gt;息" style="text;html=1;align=center;verticalAlign=middle;resizable=0;points=[];autosize=1;fontSize=15;" vertex="1" parent="1">
          <mxGeometry x="230" y="560" width="30" height="80" as="geometry" />
        </mxCell>
        <mxCell id="3dRhZd6Rb1Qm-3JZGdvN-110" value="订单&lt;br&gt;数据" style="text;html=1;align=center;verticalAlign=middle;resizable=0;points=[];autosize=1;fontSize=15;" vertex="1" parent="1">
          <mxGeometry x="215" y="460" width="50" height="40" as="geometry" />
        </mxCell>
        <mxCell id="3dRhZd6Rb1Qm-3JZGdvN-111" value="订单&lt;br&gt;数据" style="text;html=1;align=center;verticalAlign=middle;resizable=0;points=[];autosize=1;fontSize=15;" vertex="1" parent="1">
          <mxGeometry x="378" y="470" width="50" height="40" as="geometry" />
        </mxCell>
        <mxCell id="3dRhZd6Rb1Qm-3JZGdvN-112" value="用户信息" style="text;html=1;align=center;verticalAlign=middle;resizable=0;points=[];autosize=1;fontSize=15;" vertex="1" parent="1">
          <mxGeometry x="605" y="650" width="80" height="20" as="geometry" />
        </mxCell>
        <mxCell id="3dRhZd6Rb1Qm-3JZGdvN-113" value="用户信息" style="text;html=1;align=center;verticalAlign=middle;resizable=0;points=[];autosize=1;fontSize=15;" vertex="1" parent="1">
          <mxGeometry x="600" y="710" width="80" height="20" as="geometry" />
        </mxCell>
        <mxCell id="3dRhZd6Rb1Qm-3JZGdvN-114" value="角色信息" style="text;html=1;align=center;verticalAlign=middle;resizable=0;points=[];autosize=1;fontSize=15;" vertex="1" parent="1">
          <mxGeometry x="580" y="750" width="80" height="20" as="geometry" />
        </mxCell>
        <mxCell id="3dRhZd6Rb1Qm-3JZGdvN-115" value="登录认证" style="text;html=1;align=center;verticalAlign=middle;resizable=0;points=[];autosize=1;fontSize=15;" vertex="1" parent="1">
          <mxGeometry x="240" y="725" width="80" height="20" as="geometry" />
        </mxCell>
        <mxCell id="3dRhZd6Rb1Qm-3JZGdvN-116" value="登录&lt;br&gt;认证" style="text;html=1;align=center;verticalAlign=middle;resizable=0;points=[];autosize=1;fontSize=15;" vertex="1" parent="1">
          <mxGeometry x="429" y="745" width="50" height="40" as="geometry" />
        </mxCell>
      </root>
    </mxGraphModel>
  </diagram>
</mxfile>
